<svg xmlns="http://www.w3.org/2000/svg" width="715.483" height="139.616" viewBox="0 0 715.483 139.616">
  <path id="WEB_INTEGRATION_LE" data-name="WEB INTEGRATION &amp; LE" d="M650.139,139.616a24.39,24.39,0,0,1-8.193-1.344,20.634,20.634,0,0,1-7.04-4.352l7.1-7.808a10.4,10.4,0,0,0,3.872,3.168,10.878,10.878,0,0,0,7.3.833,8.047,8.047,0,0,0,2.24-.864,4.852,4.852,0,0,0,1.6-1.472,3.685,3.685,0,0,0,.608-2.111,3.847,3.847,0,0,0-1.569-3.232,14.5,14.5,0,0,0-3.936-2.016c-1.568-.552-3.291-1.111-5.12-1.664a23.135,23.135,0,0,1-5.12-2.24,12.388,12.388,0,0,1-3.936-3.713,10.668,10.668,0,0,1-1.568-6.079,13.667,13.667,0,0,1,1.44-6.4,13.933,13.933,0,0,1,3.839-4.608,16.781,16.781,0,0,1,5.537-2.785A22.768,22.768,0,0,1,653.659,92a25.535,25.535,0,0,1,7.424,1.088,17.214,17.214,0,0,1,6.464,3.648l-6.848,7.488a7.146,7.146,0,0,0-3.3-2.272,11.88,11.88,0,0,0-3.937-.736,10.334,10.334,0,0,0-2.239.257,8.585,8.585,0,0,0-2.176.8,4.759,4.759,0,0,0-1.664,1.44,3.988,3.988,0,0,0,.9,5.312,14.619,14.619,0,0,0,3.873,1.856c1.546.509,3.236,1.026,5.024,1.536a20.79,20.79,0,0,1,5.024,2.175,11.955,11.955,0,0,1,3.872,3.776,11.56,11.56,0,0,1,1.536,6.336A14.638,14.638,0,0,1,666.2,131.3a13.443,13.443,0,0,1-3.809,4.673,16.274,16.274,0,0,1-5.567,2.751A24.57,24.57,0,0,1,650.139,139.616Zm-448.843,0a28.04,28.04,0,0,1-9.792-1.664,22.532,22.532,0,0,1-7.744-4.768,21.723,21.723,0,0,1-5.089-7.519,27.55,27.55,0,0,1,0-19.713,21.723,21.723,0,0,1,5.089-7.519,22.531,22.531,0,0,1,7.744-4.768A28.061,28.061,0,0,1,201.3,92a36.409,36.409,0,0,1,10.016,1.312,19.7,19.7,0,0,1,8.032,4.512L212.3,105.5a14.082,14.082,0,0,0-4.608-3.2,16.5,16.5,0,0,0-6.4-1.088,14.9,14.9,0,0,0-5.792,1.088,13.063,13.063,0,0,0-4.449,3.04,13.426,13.426,0,0,0-2.848,4.639,17.69,17.69,0,0,0,0,11.68,13.483,13.483,0,0,0,2.848,4.608,13.061,13.061,0,0,0,4.449,3.04A14.894,14.894,0,0,0,201.3,130.4a19.175,19.175,0,0,0,5.632-.736,21.285,21.285,0,0,0,3.776-1.5V120.8h-8.128v-9.216H220.3v23.68a36.278,36.278,0,0,1-9.216,3.328A46.984,46.984,0,0,1,201.3,139.616Zm-182.417,0a21.421,21.421,0,0,1-5.953-.833,15.979,15.979,0,0,1-5.152-2.527A12.541,12.541,0,0,1,4.16,132a12.693,12.693,0,0,1-1.344-5.953,11.638,11.638,0,0,1,.736-4.127A12.587,12.587,0,0,1,5.6,118.368a14.6,14.6,0,0,1,3.04-2.784,15.692,15.692,0,0,1,3.776-1.888c-.744-.831-1.422-1.607-2.016-2.3a13.981,13.981,0,0,1-1.6-2.3,11.13,11.13,0,0,1-1.024-2.561,11.919,11.919,0,0,1-.352-3.008,10.888,10.888,0,0,1,1.184-5.248,10.514,10.514,0,0,1,3.168-3.584A13.437,13.437,0,0,1,16.32,92.64,21.667,21.667,0,0,1,21.568,92a18.278,18.278,0,0,1,4.992.672,12.662,12.662,0,0,1,4.192,2.047,10.222,10.222,0,0,1,2.912,3.456,10.623,10.623,0,0,1,1.088,4.961,10.391,10.391,0,0,1-.671,3.775,13.178,13.178,0,0,1-1.824,3.232,15.143,15.143,0,0,1-2.656,2.688,20.478,20.478,0,0,1-3.232,2.08l5.824,6.208,4.416-6.017H47.744l-9.536,12.672L48.32,138.464H35.968l-3.776-4.289a17.581,17.581,0,0,1-6.048,4.161A19.676,19.676,0,0,1,18.88,139.616Zm-.512-20.48c-.628.378-1.264.776-1.888,1.184a10.459,10.459,0,0,0-1.664,1.344,5.951,5.951,0,0,0-1.184,1.7,5.27,5.27,0,0,0-.448,2.24,5.109,5.109,0,0,0,.512,2.3,5.425,5.425,0,0,0,1.344,1.728,6.744,6.744,0,0,0,4.224,1.535,7.538,7.538,0,0,0,3.873-.959,21.273,21.273,0,0,0,3.232-2.369ZM21.44,99.68a4.535,4.535,0,0,0-3.136,1.152,3.946,3.946,0,0,0-1.28,3.072,3.751,3.751,0,0,0,.383,1.632,9.538,9.538,0,0,0,.928,1.536,10.69,10.69,0,0,0,1.216,1.376c.463.44.871.817,1.248,1.152.507-.3,1.067-.651,1.664-1.057a12.765,12.765,0,0,0,1.664-1.344,7.546,7.546,0,0,0,1.28-1.6,3.54,3.54,0,0,0,.512-1.823,3.69,3.69,0,0,0-1.312-3.04A4.916,4.916,0,0,0,21.44,99.68Zm527.647,38.785H537.822l-3.9-9.6h-17.6l-3.776,9.6H501.534l19.584-45.312h8.257l19.712,45.312Zm-24.129-32.13h0l-5.5,14.081h11.073l-5.568-14.081Zm-119.932,32.13H393.762l-3.9-9.6h-17.6l-3.776,9.6H357.474l19.584-45.312h8.256l19.713,45.312ZM380.9,106.336l-5.5,14.081h11.072L380.9,106.336Zm-100.861,32.13H268.773l-3.9-9.6h-17.6l-3.776,9.6H232.485l19.584-45.312h8.256l19.712,45.312Zm-24.129-32.13-5.5,14.081h11.072Zm342.818,32.129h-9.984V93.152h17.536a31.062,31.062,0,0,1,6.56.672,15.63,15.63,0,0,1,5.44,2.24,11.206,11.206,0,0,1,3.712,4.224,14.376,14.376,0,0,1,1.376,6.624,13.36,13.36,0,0,1-2.5,8.16,11.288,11.288,0,0,1-7.3,4.256l11.519,19.134-11.967,0-9.473-18.113h-4.927v18.113Zm0-36.865v10.3h5.888c.886,0,1.845-.032,2.849-.1a8.948,8.948,0,0,0,2.72-.576,4.719,4.719,0,0,0,2.016-1.5,4.6,4.6,0,0,0,.8-2.88,4.8,4.8,0,0,0-.7-2.752,4.714,4.714,0,0,0-1.792-1.568,7.983,7.983,0,0,0-2.5-.736,20.479,20.479,0,0,0-2.752-.192ZM571.57,138.464h-9.984V93.152h9.984Zm-97.512,0h-9.984V93.152h30.4v9.216H474.058v9.216h18.88V120.8h-18.88v17.663Zm-46.036,0h-9.984V93.152h30.4v9.216H428.022v9.216H446.9V120.8h-18.88v17.663Zm-106.492,0H293.049V93.152h9.985v36.1h18.5v9.215Zm-158.333,0H131.261V93.152h30.784v9.216h-20.8v8.448h19.649v9.216H141.244v9.216H163.2v9.215Zm-45.909,0H88.808V93.152h9.984v36.1h18.5v9.215ZM633.223,47.616a28.054,28.054,0,0,1-9.792-1.664,22.527,22.527,0,0,1-7.745-4.768,21.716,21.716,0,0,1-5.088-7.52,25.712,25.712,0,0,1-1.824-9.856,25.712,25.712,0,0,1,1.824-9.856,21.718,21.718,0,0,1,5.088-7.519,22.5,22.5,0,0,1,7.745-4.768,29.64,29.64,0,0,1,19.584,0,22.5,22.5,0,0,1,7.744,4.768,21.706,21.706,0,0,1,5.089,7.519,25.709,25.709,0,0,1,1.823,9.856,25.709,25.709,0,0,1-1.823,9.856,21.7,21.7,0,0,1-5.089,7.52,22.531,22.531,0,0,1-7.744,4.768A28.061,28.061,0,0,1,633.223,47.616Zm0-38.4a14.9,14.9,0,0,0-5.792,1.088,13.06,13.06,0,0,0-4.448,3.04,13.4,13.4,0,0,0-2.848,4.639,16.764,16.764,0,0,0-.993,5.824,16.688,16.688,0,0,0,.993,5.856,13.462,13.462,0,0,0,2.848,4.608,13.06,13.06,0,0,0,4.448,3.04,15.959,15.959,0,0,0,11.584,0,13.063,13.063,0,0,0,4.449-3.04,13.489,13.489,0,0,0,2.848-4.608,16.69,16.69,0,0,0,.992-5.856,16.766,16.766,0,0,0-.992-5.824,13.427,13.427,0,0,0-2.848-4.639,13.061,13.061,0,0,0-4.449-3.04A14.893,14.893,0,0,0,633.223,9.216Zm-228.9,38.4a28.061,28.061,0,0,1-9.792-1.664,22.53,22.53,0,0,1-7.744-4.768,21.7,21.7,0,0,1-5.088-7.52,25.7,25.7,0,0,1-1.824-9.856,25.7,25.7,0,0,1,1.824-9.856,21.709,21.709,0,0,1,5.088-7.519,22.5,22.5,0,0,1,7.744-4.768A28.04,28.04,0,0,1,404.321,0a36.4,36.4,0,0,1,10.016,1.312,19.7,19.7,0,0,1,8.032,4.512l-7.041,7.68a14.086,14.086,0,0,0-4.608-3.2,16.493,16.493,0,0,0-6.4-1.088A14.894,14.894,0,0,0,398.53,10.3a13.049,13.049,0,0,0-4.448,3.04,13.416,13.416,0,0,0-2.848,4.639,16.766,16.766,0,0,0-.992,5.824,16.69,16.69,0,0,0,.992,5.856,13.479,13.479,0,0,0,2.848,4.608,13.05,13.05,0,0,0,4.448,3.04,14.9,14.9,0,0,0,5.791,1.088,19.179,19.179,0,0,0,5.632-.736,21.349,21.349,0,0,0,3.776-1.5V28.8H405.6V19.584h17.727v23.68a36.313,36.313,0,0,1-9.216,3.328A47.045,47.045,0,0,1,404.321,47.616Zm128.3-1.151H521.354l-3.9-9.6h-17.6l-3.776,9.6H485.066L504.65,1.152h8.257l19.712,45.312ZM508.49,14.336l-5.5,14.08h11.073ZM715.483,46.465H702.427L682.651,14.208h-.128V46.464h-9.984V1.152h13.567L705.371,32.64h.128V1.152h9.984V46.464Zm-265.317,0h-9.984V1.152h17.536a31.067,31.067,0,0,1,6.56.672,15.617,15.617,0,0,1,5.44,2.24,11.2,11.2,0,0,1,3.712,4.224,14.37,14.37,0,0,1,1.376,6.624,13.359,13.359,0,0,1-2.5,8.16,11.285,11.285,0,0,1-7.3,4.255l11.519,19.135-11.967,0-9.472-18.113h-4.928V46.464Zm0-36.865V19.9h5.889c.886,0,1.844-.032,2.848-.1a8.977,8.977,0,0,0,2.72-.576,4.728,4.728,0,0,0,2.016-1.5,4.6,4.6,0,0,0,.8-2.88,4.809,4.809,0,0,0-.7-2.752,4.714,4.714,0,0,0-1.792-1.568,7.983,7.983,0,0,0-2.5-.736,20.467,20.467,0,0,0-2.751-.192ZM271.781,46.465H258.725L238.949,14.208h-.128V46.464h-9.985V1.152h13.568L261.669,32.64h.129V1.152h9.984V46.464Zm-220.773,0h-8.9L32.128,15.1H32L22.016,46.464H13.44L0,1.152H10.88l7.232,29.056h.129L27.712,1.152h9.28L46.4,30.976h.128L54.144,1.152H64.256L51.008,46.464Zm543.026,0h-9.984V1.152h9.984Zm-35.924,0h-9.985V9.984H535.2V1.152h35.84V9.984H558.111Zm-191.889,0H334.285V1.152H365.07v9.216h-20.8v8.448h19.648v9.216H344.27v9.216h21.952v9.215Zm-58.388,0H297.85V9.984H284.921V1.152h35.84V9.984H307.833Zm-96.169,0h-9.984V1.152h9.984Zm-67.881,0h-18.56V1.152h16.9a42.926,42.926,0,0,1,5.919.416,16.248,16.248,0,0,1,5.344,1.664,10.287,10.287,0,0,1,3.84,3.488,10.741,10.741,0,0,1,1.471,5.952,9.547,9.547,0,0,1-2.144,6.368,11.845,11.845,0,0,1-5.664,3.615v.129a13,13,0,0,1,4.063,1.247,10.93,10.93,0,0,1,3.137,2.368A10.142,10.142,0,0,1,160.1,29.76a11.869,11.869,0,0,1,.7,4.1,10.939,10.939,0,0,1-1.536,5.984,12.12,12.12,0,0,1-3.968,3.872,17.507,17.507,0,0,1-5.472,2.112A29.421,29.421,0,0,1,143.784,46.464Zm-8.575-18.752v10.3h8.959a11.124,11.124,0,0,0,2.336-.256,6.214,6.214,0,0,0,2.144-.9,5.11,5.11,0,0,0,1.568-1.664,4.83,4.83,0,0,0,.608-2.5,4.023,4.023,0,0,0-.8-2.592,5.094,5.094,0,0,0-2.016-1.5,10.387,10.387,0,0,0-2.624-.7,19.622,19.622,0,0,0-2.623-.192Zm0-18.112v9.663h7.232a10.2,10.2,0,0,0,2.272-.256,6.341,6.341,0,0,0,2.016-.832,4.361,4.361,0,0,0,1.44-1.536,4.622,4.622,0,0,0,.544-2.3A4.2,4.2,0,0,0,148.1,12a4.255,4.255,0,0,0-1.568-1.44,7.484,7.484,0,0,0-2.176-.735,13.092,13.092,0,0,0-2.368-.224ZM109.14,46.464H77.2V1.152h30.785v9.216h-20.8v8.448h19.648v9.216H87.188v9.216H109.14v9.215Z" transform="translate(0 0)" fill="#fff"/>
</svg>
